<?xml version="1.0" encoding="utf-8"?>
<!-- Generator: Adobe Illustrator 15.0.0, SVG Export Plug-In . SVG Version: 6.00 Build 0)  -->
<!DOCTYPE svg PUBLIC "-//W3C//DTD SVG 1.1//EN" "http://www.w3.org/Graphics/SVG/1.1/DTD/svg11.dtd">
<svg version="1.1" id="Layer_1" xmlns="http://www.w3.org/2000/svg" xmlns:xlink="http://www.w3.org/1999/xlink" x="0px" y="0px"
	 width="100px" height="100px" viewBox="0 0 100 100" enable-background="new 0 0 100 100" xml:space="preserve">
<g>
	<path d="M12.734,33.125c-0.586,0-1.084-0.205-1.494-0.615s-0.615-0.908-0.615-1.494v-6.328c0-2.344,0.82-4.336,2.461-5.977
		s3.633-2.461,5.977-2.461H27.5V7.109c0-0.586,0.205-1.084,0.615-1.494S29.023,5,29.609,5h7.031c0.586,0,1.084,0.205,1.494,0.615
		s0.615,0.908,0.615,1.494v9.141h22.5V7.109c0-0.586,0.205-1.084,0.615-1.494S62.773,5,63.359,5h7.031
		c0.586,0,1.084,0.205,1.494,0.615S72.5,6.523,72.5,7.109v9.141h8.438c2.344,0,4.336,0.82,5.977,2.461s2.461,3.633,2.461,5.977
		v6.328c0,0.586-0.205,1.084-0.615,1.494s-0.908,0.615-1.494,0.615H12.734z M87.266,38.75c0.586,0,1.084,0.205,1.494,0.615
		s0.615,0.908,0.615,1.494v45.703c0,2.344-0.82,4.336-2.461,5.977S83.281,95,80.938,95H19.063c-2.344,0-4.336-0.82-5.977-2.461
		s-2.461-3.633-2.461-5.977V40.859c0-0.586,0.205-1.084,0.615-1.494s0.908-0.615,1.494-0.615H87.266z M32.51,50.615
		C32.1,50.205,31.602,50,31.016,50h-7.031c-0.586,0-1.084,0.205-1.494,0.615s-0.615,0.908-0.615,1.494v7.031
		c0,0.586,0.205,1.084,0.615,1.494s0.908,0.615,1.494,0.615h7.031c0.586,0,1.084-0.205,1.494-0.615s0.615-0.908,0.615-1.494v-7.031
		C33.125,51.523,32.92,51.025,32.51,50.615z M32.51,73.115c-0.41-0.41-0.908-0.615-1.494-0.615h-7.031
		c-0.586,0-1.084,0.205-1.494,0.615s-0.615,0.908-0.615,1.494v7.031c0,0.586,0.205,1.084,0.615,1.494s0.908,0.615,1.494,0.615h7.031
		c0.586,0,1.084-0.205,1.494-0.615s0.615-0.908,0.615-1.494v-7.031C33.125,74.023,32.92,73.525,32.51,73.115z M55.01,50.615
		C54.6,50.205,54.102,50,53.516,50h-7.031c-0.586,0-1.084,0.205-1.494,0.615s-0.615,0.908-0.615,1.494v7.031
		c0,0.586,0.205,1.084,0.615,1.494s0.908,0.615,1.494,0.615h7.031c0.586,0,1.084-0.205,1.494-0.615s0.615-0.908,0.615-1.494v-7.031
		C55.625,51.523,55.42,51.025,55.01,50.615z M55.01,73.115c-0.41-0.41-0.908-0.615-1.494-0.615h-7.031
		c-0.586,0-1.084,0.205-1.494,0.615s-0.615,0.908-0.615,1.494v7.031c0,0.586,0.205,1.084,0.615,1.494s0.908,0.615,1.494,0.615h7.031
		c0.586,0,1.084-0.205,1.494-0.615s0.615-0.908,0.615-1.494v-7.031C55.625,74.023,55.42,73.525,55.01,73.115z M77.51,50.615
		C77.1,50.205,76.602,50,76.016,50h-7.031c-0.586,0-1.084,0.205-1.494,0.615s-0.615,0.908-0.615,1.494v7.031
		c0,0.586,0.205,1.084,0.615,1.494s0.908,0.615,1.494,0.615h7.031c0.586,0,1.084-0.205,1.494-0.615s0.615-0.908,0.615-1.494v-7.031
		C78.125,51.523,77.92,51.025,77.51,50.615z M77.51,73.115c-0.41-0.41-0.908-0.615-1.494-0.615h-7.031
		c-0.586,0-1.084,0.205-1.494,0.615s-0.615,0.908-0.615,1.494v7.031c0,0.586,0.205,1.084,0.615,1.494s0.908,0.615,1.494,0.615h7.031
		c0.586,0,1.084-0.205,1.494-0.615s0.615-0.908,0.615-1.494v-7.031C78.125,74.023,77.92,73.525,77.51,73.115z"/>
</g>
</svg>
