<?xml version="1.0" encoding="utf-8"?>
<!-- Generator: Adobe Illustrator 15.0.0, SVG Export Plug-In . SVG Version: 6.00 Build 0)  -->
<!DOCTYPE svg PUBLIC "-//W3C//DTD SVG 1.1//EN" "http://www.w3.org/Graphics/SVG/1.1/DTD/svg11.dtd">
<svg version="1.1" id="Layer_1" xmlns="http://www.w3.org/2000/svg" xmlns:xlink="http://www.w3.org/1999/xlink" x="0px" y="0px"
	 width="100px" height="100px" viewBox="0 0 100 100" enable-background="new 0 0 100 100" xml:space="preserve">
<g>
	<path d="M50.002,61.25c-1.523,0-3.398-0.703-5.625-2.109c-1.289-0.703-3.106-1.992-5.45-3.867l-1.758-1.23
		C22.755,43.496,12.969,36.23,7.813,32.246l-1.23-0.879C5.528,30.546,5,29.433,5,28.026v-3.34c0-2.344,0.821-4.336,2.461-5.977
		c1.641-1.641,3.633-2.461,5.977-2.461h73.128c2.344,0,4.332,0.82,5.973,2.461C94.18,20.351,95,22.343,95,24.687v3.34
		c0,1.406-0.527,2.52-1.582,3.34l-0.879,0.704c-5.035,3.984-14.938,11.309-29.704,21.973l-1.758,1.23
		c-2.345,1.875-4.161,3.164-5.45,3.867C53.4,60.547,51.525,61.25,50.002,61.25z M93.242,38.574
		c-4.215,3.281-13.239,9.903-27.067,19.864l-1.758,1.406c-2.695,2.109-4.922,3.633-6.681,4.57c-2.813,1.641-5.391,2.461-7.734,2.461
		s-4.922-0.762-7.734-2.285c-1.641-0.938-3.868-2.461-6.68-4.57l-1.758-1.582C19.649,48.125,10.625,41.503,6.758,38.574
		c-0.352-0.234-0.732-0.264-1.143-0.088C5.205,38.662,5,38.984,5,39.453v35.862c0,2.344,0.821,4.336,2.461,5.977
		s3.633,2.461,5.977,2.461h73.128c2.344,0,4.332-0.82,5.973-2.461S95,77.658,95,75.314V39.453c0-0.469-0.205-0.82-0.615-1.055
		S93.594,38.222,93.242,38.574z"/>
</g>
</svg>
