<?xml version="1.0" encoding="utf-8"?>
<!-- Generator: Adobe Illustrator 15.0.0, SVG Export Plug-In . SVG Version: 6.00 Build 0)  -->
<!DOCTYPE svg PUBLIC "-//W3C//DTD SVG 1.1//EN" "http://www.w3.org/Graphics/SVG/1.1/DTD/svg11.dtd">
<svg version="1.1" id="Layer_1" xmlns="http://www.w3.org/2000/svg" xmlns:xlink="http://www.w3.org/1999/xlink" x="0px" y="0px"
	 width="100px" height="100px" viewBox="0 0 100 100" enable-background="new 0 0 100 100" xml:space="preserve">
<g>
	<path d="M12.891,83.906c-1.198-0.729-2.109-1.719-2.734-2.969C6.719,74.479,5,67.5,5,60c0-8.125,2.031-15.677,6.094-22.656
		c3.958-6.875,9.375-12.292,16.25-16.25C34.323,17.031,41.875,15,50,15s15.677,2.031,22.656,6.094
		c6.875,3.958,12.292,9.375,16.25,16.25C92.969,44.323,95,51.875,95,60c0,7.5-1.719,14.479-5.156,20.938
		c-0.625,1.25-1.536,2.239-2.734,2.969S84.583,85,83.125,85h-66.25C15.417,85,14.088,84.636,12.891,83.906z M11.484,56.484
		C10.495,57.475,10,58.646,10,60s0.495,2.525,1.484,3.516S13.646,65,15,65s2.526-0.494,3.516-1.484S20,61.354,20,60
		s-0.495-2.525-1.484-3.516S16.354,55,15,55S12.474,55.494,11.484,56.484z M21.719,31.719c-0.938,0.938-1.406,2.109-1.406,3.516
		s0.469,2.604,1.406,3.594s2.109,1.484,3.516,1.484s2.604-0.495,3.594-1.484s1.484-2.188,1.484-3.594s-0.495-2.578-1.484-3.516
		s-2.162-1.406-3.516-1.406C23.854,30.313,22.656,30.781,21.719,31.719z M58.281,35.391c-0.938,0.469-1.563,1.224-1.875,2.266
		L49.219,60c-2.604,0.209-4.792,1.275-6.563,3.203S40,67.447,40,70.156c0,2.708,0.963,5.026,2.891,6.953S47.188,80,50,80
		s5.182-0.964,7.109-2.891C59.036,75.183,60,72.813,60,70c0-3.125-1.198-5.678-3.594-7.656l7.188-22.5
		c0.313-0.938,0.234-1.875-0.234-2.813s-1.224-1.563-2.266-1.875C60.156,34.844,59.219,34.922,58.281,35.391z M53.516,28.516
		C54.506,27.526,55,26.354,55,25s-0.494-2.526-1.484-3.516S51.354,20,50,20c-1.354,0-2.526,0.495-3.516,1.484S45,23.646,45,25
		s0.495,2.526,1.484,3.516S48.646,30,50,30C51.354,30,52.525,29.505,53.516,28.516z M71.172,31.719
		c-0.989,0.938-1.484,2.109-1.484,3.516s0.495,2.604,1.484,3.594s2.188,1.484,3.594,1.484s2.578-0.495,3.516-1.484
		s1.406-2.188,1.406-3.594s-0.469-2.578-1.406-3.516s-2.136-1.406-3.594-1.406C73.333,30.313,72.161,30.781,71.172,31.719z
		 M81.484,56.484C80.495,57.475,80,58.646,80,60s0.495,2.525,1.484,3.516S83.646,65,85,65s2.526-0.494,3.516-1.484S90,61.354,90,60
		s-0.495-2.525-1.484-3.516S86.354,55,85,55S82.474,55.494,81.484,56.484z"/>
</g>
</svg>
