<?xml version="1.0" encoding="utf-8"?>
<!-- Generator: Adobe Illustrator 15.0.0, SVG Export Plug-In . SVG Version: 6.00 Build 0)  -->
<!DOCTYPE svg PUBLIC "-//W3C//DTD SVG 1.1//EN" "http://www.w3.org/Graphics/SVG/1.1/DTD/svg11.dtd">
<svg version="1.1" id="Layer_1" xmlns="http://www.w3.org/2000/svg" xmlns:xlink="http://www.w3.org/1999/xlink" x="0px" y="0px"
	 width="100px" height="100px" viewBox="0 0 100 100" enable-background="new 0 0 100 100" xml:space="preserve">
<g>
	<path d="M73.873,33.125c1.641,0,2.871,0.703,3.691,2.109s0.82,2.813,0,4.219L46.627,92.891C45.807,94.297,44.576,95,42.936,95
		c-1.406,0-2.52-0.527-3.34-1.582s-1.055-2.285-0.703-3.691l8.086-34.102H26.061c-1.289,0-2.344-0.469-3.164-1.406
		s-1.172-2.051-1.055-3.34l5.625-42.188c0.117-1.055,0.586-1.934,1.406-2.637S30.631,5,31.686,5h23.906
		c1.406,0,2.52,0.557,3.34,1.67s1.055,2.314,0.703,3.604l-5.977,22.852H73.873z"/>
</g>
</svg>
