<?xml version="1.0" encoding="utf-8"?>
<!-- Generator: Adobe Illustrator 15.0.0, SVG Export Plug-In . SVG Version: 6.00 Build 0)  -->
<!DOCTYPE svg PUBLIC "-//W3C//DTD SVG 1.1//EN" "http://www.w3.org/Graphics/SVG/1.1/DTD/svg11.dtd">
<svg version="1.1" id="Layer_1" xmlns="http://www.w3.org/2000/svg" xmlns:xlink="http://www.w3.org/1999/xlink" x="0px" y="0px"
	 width="100px" height="100px" viewBox="0 0 100 100" enable-background="new 0 0 100 100" xml:space="preserve">
<g>
	<path d="M23.281,44.375c1.172,0,2.168,0.41,2.988,1.23s1.23,1.816,1.23,2.988v42.188c0,1.172-0.41,2.168-1.23,2.988
		S24.453,95,23.281,95H9.219c-1.172,0-2.168-0.41-2.988-1.23S5,91.953,5,90.781V48.594c0-1.172,0.41-2.168,1.23-2.988
		s1.816-1.23,2.988-1.23H23.281z M16.25,87.969c1.172,0,2.168-0.41,2.988-1.23s1.23-1.816,1.23-2.988s-0.41-2.168-1.23-2.988
		s-1.816-1.23-2.988-1.23s-2.168,0.41-2.988,1.23s-1.23,1.816-1.23,2.988s0.41,2.168,1.23,2.988S15.078,87.969,16.25,87.969z
		 M72.5,19.238c0-5.625-1.582-9.609-4.746-11.953C65.645,5.762,63.008,5,59.844,5c-1.523,0-2.871,1.289-4.043,3.867
		c-0.586,1.406-1.23,3.457-1.934,6.152v0.176c-0.586,2.578-1.113,4.453-1.582,5.625c-0.703,1.992-1.641,3.574-2.813,4.746
		c-1.875,1.758-4.219,4.688-7.031,8.789c-3.398,4.922-6.27,8.613-8.613,11.074c-0.469,0.352-0.703,0.82-0.703,1.406v37.617
		c0,0.586,0.205,1.084,0.615,1.494s0.908,0.615,1.494,0.615c1.992,0,5.01,0.908,9.053,2.725s7.236,3.076,9.58,3.779
		C57.852,94.355,61.719,95,65.469,95h0.527c5.156,0,8.965-0.234,11.426-0.703c4.102-0.703,6.914-2.168,8.438-4.395
		s1.934-4.863,1.23-7.91c1.406-1.641,2.402-3.691,2.988-6.152s0.527-4.805-0.176-7.031c1.523-1.992,2.402-4.277,2.637-6.855
		s-0.117-4.98-1.055-7.207h0.176c0.938-1.055,1.729-2.344,2.373-3.867S95,47.773,95,46.133c0-2.695-1.025-5.068-3.076-7.119
		s-4.541-3.076-7.471-3.076H66.699c0.234-1.172,0.996-2.988,2.285-5.449c1.172-2.109,1.992-3.75,2.461-4.922
		C72.148,23.457,72.5,21.348,72.5,19.238z"/>
</g>
</svg>
