<svg version="1.1"
	 xmlns="http://www.w3.org/2000/svg"  viewBox="0 0 100 100" >

	<path d="M82.396,39.43c1.922,5.857,2.219,11.737,0.893,17.641c-1.326,5.902-3.982,11.118-7.963,15.648s-8.9,7.755-14.756,9.678
		c-3.477,1.098-7.002,1.647-10.57,1.647c-4.76,0-9.335-0.96-13.728-2.883c-4.393-1.922-8.214-4.667-11.463-8.235
		c-3.249-3.57-5.65-7.688-7.206-12.355c-1.922-5.857-2.219-11.737-0.893-17.641c1.327-5.902,3.981-11.118,7.963-15.648
		c3.979-4.529,8.898-7.756,14.756-9.678c3.479-1.099,7.001-1.647,10.57-1.647c4.758,0,9.334,0.962,13.727,2.883
		c4.393,1.923,8.215,4.668,11.463,8.236C78.439,30.645,80.842,34.762,82.396,39.43z M35.037,66.886l6.041-8.375l-3.433-10.296
		l-9.747-3.02l-5.354,5.079c0.092,5.767,1.831,11.028,5.216,15.786L35.037,66.886z M41.353,23.918
		c-5.492,1.83-9.976,5.125-13.454,9.884l1.373,7.275l9.746,3.021l8.785-6.453V27.487L41.353,23.918z M41.626,76.081
		c5.582,1.83,11.075,1.878,16.474,0.138l0.273-0.138l3.021-6.588l-6.041-8.375H44.508l-5.902,8.375L41.626,76.081z M72.102,33.802
		c-3.387-4.759-7.871-8.054-13.453-9.884l-6.453,3.569v10.157l8.785,6.453l9.748-3.021L72.102,33.802z M72.102,66.061
		c1.098-1.465,1.875-2.652,2.332-3.567c1.924-3.845,2.93-7.917,3.021-12.219l-5.354-5.079l-9.748,3.02l-3.43,10.434l6.039,8.237
		L72.102,66.061z"/>
</svg>
