<?xml version="1.0" encoding="utf-8"?>
<!-- Generator: Adobe Illustrator 15.0.0, SVG Export Plug-In . SVG Version: 6.00 Build 0)  -->
<!DOCTYPE svg PUBLIC "-//W3C//DTD SVG 1.1//EN" "http://www.w3.org/Graphics/SVG/1.1/DTD/svg11.dtd">
<svg version="1.1" id="Layer_1" xmlns="http://www.w3.org/2000/svg" xmlns:xlink="http://www.w3.org/1999/xlink" x="0px" y="0px"
	 width="100px" height="100px" viewBox="0 0 100 100" enable-background="new 0 0 100 100" xml:space="preserve">
<path d="M21.968,50c0,1.807-0.631,3.338-1.896,4.604c-1.264,1.268-2.798,1.896-4.602,1.896c-1.805,0-3.341-0.631-4.605-1.896
	C9.6,53.338,8.969,51.806,8.969,50c0-1.807,0.632-3.344,1.896-4.605c1.265-1.264,2.801-1.897,4.605-1.897
	c1.804,0,3.338,0.634,4.602,1.897C21.337,46.656,21.968,48.192,21.968,50z M25.594,19.092c1.806,0,3.341,0.634,4.604,1.896
	c1.265,1.265,1.896,2.799,1.896,4.605c0,1.805-0.632,3.34-1.896,4.604c-1.263,1.263-2.798,1.895-4.604,1.895
	c-1.806,0-3.34-0.632-4.604-1.895c-1.264-1.265-1.896-2.8-1.896-4.604c0-1.807,0.632-3.341,1.896-4.605
	C22.254,19.727,23.788,19.092,25.594,19.092z M25.594,67.903c1.806,0,3.341,0.634,4.604,1.896c1.265,1.266,1.896,2.798,1.896,4.605
	c0,1.807-0.632,3.339-1.896,4.604c-1.263,1.266-2.798,1.896-4.604,1.896c-1.806,0-3.34-0.63-4.604-1.896
	c-1.264-1.265-1.896-2.797-1.896-4.604c0-1.809,0.632-3.341,1.896-4.605C22.254,68.537,23.788,67.903,25.594,67.903z M56.499,15.465
	c0-1.806-0.631-3.34-1.896-4.604c-1.264-1.264-2.797-1.896-4.604-1.896c-1.806,0-3.34,0.632-4.604,1.896
	c-1.264,1.265-1.896,2.799-1.896,4.604c0,1.805,0.632,3.342,1.896,4.604c1.265,1.265,2.799,1.896,4.604,1.896
	c1.808,0,3.341-0.632,4.604-1.896C55.868,18.808,56.499,17.271,56.499,15.465z M49.998,74c3.059,0,5.652,1.065,7.792,3.207
	c2.142,2.141,3.209,4.734,3.209,7.791c0,3.059-1.067,5.652-3.209,7.791C55.65,94.931,53.057,96,49.998,96
	c-3.055,0-5.651-1.069-7.791-3.211c-2.139-2.139-3.208-4.732-3.208-7.791c0-3.057,1.069-5.65,3.208-7.791
	C44.347,75.065,46.943,74,49.998,74z M74.404,64.403c2.777,0,5.138,0.974,7.084,2.916c1.943,1.947,2.916,4.308,2.916,7.085
	s-0.973,5.137-2.916,7.084c-1.946,1.944-4.307,2.915-7.084,2.915s-5.137-0.971-7.084-2.915c-1.944-1.947-2.916-4.307-2.916-7.084
	s0.972-5.138,2.916-7.085C69.268,65.377,71.627,64.403,74.404,64.403z M84.532,41.499c2.36,0,4.366,0.828,6.021,2.479
	c1.652,1.652,2.479,3.661,2.479,6.021c0,2.361-0.826,4.366-2.479,6.021c-1.654,1.652-3.66,2.479-6.021,2.479
	c-2.361,0-4.367-0.826-6.021-2.479c-1.652-1.655-2.479-3.66-2.479-6.021c0-2.359,0.825-4.369,2.479-6.021
	C80.165,42.326,82.171,41.499,84.532,41.499z M74.408,19.092c1.807,0,3.339,0.633,4.604,1.896c1.266,1.265,1.896,2.8,1.896,4.605
	c0,1.805-0.631,3.34-1.896,4.604c-1.265,1.265-2.797,1.896-4.604,1.896c-1.809,0-3.34-0.631-4.604-1.896
	c-1.266-1.264-1.897-2.798-1.897-4.604c0-1.806,0.633-3.341,1.897-4.605C71.068,19.726,72.602,19.092,74.408,19.092z"/>
</svg>
