<svg
		version="1.1"
		xmlns="http://www.w3.org/2000/svg"
		viewBox="0 0 100 100" >

	<path d="M90,51.367H10v-12.5c0-2.083,0.729-3.854,2.188-5.313s3.229-2.188,5.313-2.188H30v-7.5c0-2.083,0.729-3.854,2.188-5.313
		s3.229-2.188,5.313-2.188h25c2.083,0,3.854,0.729,5.313,2.188S70,21.784,70,23.867v7.5h12.5c2.083,0,3.854,0.729,5.313,2.188
		S90,36.784,90,38.867V51.367z M90,56.367v22.5c0,2.084-0.729,3.854-2.188,5.313s-3.229,2.188-5.313,2.188h-65
		c-2.083,0-3.854-0.729-5.313-2.188S10,80.951,10,78.867v-22.5h30v3.125c0,0.521,0.183,0.963,0.547,1.328s0.808,0.547,1.328,0.547
		h16.25c0.521,0,0.964-0.182,1.328-0.547S60,60.014,60,59.492v-3.125H90z M40,26.367v5h20v-5H40z"/>

</svg>
