<svg
		version="1.1"
		xmlns="http://www.w3.org/2000/svg"
		viewBox="0 0 100 100">

	<path d="M86.094,60.742c0.417,0.209,0.703,0.521,0.859,0.938s0.183,0.834,0.078,1.25c-1.771,5.521-4.636,10.416-8.594,14.688
		c-0.313,0.313-0.677,0.521-1.094,0.625s-0.833,0.053-1.25-0.156l-6.563-3.906c-2.813,2.396-5.989,4.219-9.531,5.469v7.656
		c0,0.416-0.13,0.807-0.391,1.172s-0.599,0.6-1.016,0.703c-5.729,1.25-11.458,1.25-17.188,0c-0.417-0.104-0.755-0.338-1.016-0.703
		S40,87.721,40,87.305v-7.656c-3.542-1.25-6.719-3.072-9.531-5.469l-6.563,3.906c-0.417,0.209-0.833,0.26-1.25,0.156
		s-0.781-0.313-1.094-0.625c-3.958-4.271-6.823-9.166-8.594-14.688c-0.104-0.416-0.078-0.834,0.078-1.25s0.443-0.729,0.859-0.938
		l6.563-3.906c-0.625-3.646-0.625-7.292,0-10.938l-6.563-3.906c-0.417-0.208-0.703-0.521-0.859-0.938s-0.182-0.833-0.078-1.25
		c1.771-5.521,4.635-10.417,8.594-14.688c0.313-0.313,0.677-0.521,1.094-0.625s0.833-0.052,1.25,0.156l6.563,3.906
		c2.813-2.396,5.989-4.219,9.531-5.469V15.43c0-0.417,0.13-0.807,0.391-1.172s0.599-0.599,1.016-0.703
		c5.729-1.25,11.458-1.25,17.188,0c0.417,0.104,0.755,0.338,1.016,0.703S60,15.013,60,15.43v7.656
		c3.542,1.25,6.719,3.073,9.531,5.469l6.563-3.906c0.417-0.208,0.833-0.26,1.25-0.156s0.781,0.313,1.094,0.625
		c3.958,4.271,6.823,9.167,8.594,14.688c0.104,0.417,0.078,0.833-0.078,1.25s-0.442,0.729-0.859,0.938l-6.563,3.906
		c0.625,3.646,0.625,7.291,0,10.938L86.094,60.742z M58.828,42.539c-2.448-2.448-5.391-3.672-8.828-3.672s-6.38,1.224-8.828,3.672
		S37.5,47.93,37.5,51.367s1.224,6.381,3.672,8.828s5.391,3.672,8.828,3.672s6.38-1.225,8.828-3.672s3.672-5.391,3.672-8.828
		S61.276,44.987,58.828,42.539z"/>

</svg>
