<svg
		version="1.1"
		xmlns="http://www.w3.org/2000/svg"
		viewBox="0 0 100 100">

	<path d="M94.375,50.742c0.313,0.313,0.495,0.729,0.547,1.25s-0.078,0.99-0.391,1.406l-3.906,4.844
		c-0.313,0.416-0.729,0.625-1.25,0.625s-0.989-0.156-1.406-0.469L51.25,28.242c-0.417-0.313-0.833-0.469-1.25-0.469
		s-0.833,0.156-1.25,0.469L12.031,58.398c-0.417,0.313-0.885,0.469-1.406,0.469s-0.938-0.209-1.25-0.625l-3.906-4.844
		c-0.313-0.416-0.443-0.885-0.391-1.406s0.234-0.938,0.547-1.25l39.688-32.656c1.354-1.146,2.917-1.719,4.688-1.719
		s3.386,0.573,4.844,1.719L68.75,29.648V18.242c0-0.521,0.183-0.963,0.547-1.328s0.808-0.547,1.328-0.547h8.75
		c0.521,0,0.964,0.182,1.328,0.547s0.547,0.807,0.547,1.328v21.719L94.375,50.742z M81.25,60.273c0-0.625-0.208-1.146-0.625-1.563
		L51.25,34.648c-0.417-0.313-0.833-0.469-1.25-0.469s-0.833,0.156-1.25,0.469L19.375,58.711c-0.417,0.416-0.625,0.938-0.625,1.563
		v22.344c0,1.041,0.364,1.928,1.094,2.656s1.614,1.094,2.656,1.094h18.125c0.521,0,0.964-0.182,1.328-0.547s0.547-0.807,0.547-1.328
		v-17.5c0-0.521,0.183-0.963,0.547-1.328s0.808-0.547,1.328-0.547h11.25c0.521,0,0.964,0.182,1.328,0.547s0.547,0.807,0.547,1.328
		v17.5c0,0.521,0.183,0.963,0.547,1.328s0.808,0.547,1.328,0.547H77.5c1.042,0,1.927-0.365,2.656-1.094s1.094-1.615,1.094-2.656
		V60.273z"/>

</svg>
