<svg
		version="1.1"
		xmlns="http://www.w3.org/2000/svg"
		viewBox="0 0 100 100">

	<path d="M54.403,26.992c0.417-0.417,0.886-0.625,1.406-0.625s0.938,0.208,1.25,0.625l17.344,17.344
		c0.417,0.313,0.625,0.729,0.625,1.25s-0.208,0.99-0.625,1.406L33.466,87.93l-19.063,3.438c-1.25,0.209-2.344-0.156-3.281-1.094
		s-1.302-2.031-1.094-3.281l3.438-19.063L54.403,26.992z M23.778,77.617v-7.5h-5.625l-1.875,10l5,5l10-1.875v-5.625H23.778z
		 M29.403,64.492c0.417,0.416,0.938,0.625,1.563,0.625s1.146-0.209,1.563-0.625L56.591,40.43c0.417-0.417,0.625-0.938,0.625-1.563
		s-0.208-1.146-0.625-1.563s-0.938-0.625-1.563-0.625s-1.146,0.208-1.563,0.625L29.403,61.367c-0.417,0.416-0.625,0.938-0.625,1.563
		S28.987,64.076,29.403,64.492z M87.841,33.555c1.458-1.458,2.188-3.229,2.188-5.313s-0.729-3.854-2.188-5.313l-9.375-9.375
		c-1.458-1.458-3.229-2.188-5.313-2.188s-3.854,0.729-5.313,2.188l-7.188,7.188c-0.417,0.417-0.625,0.885-0.625,1.406
		s0.208,0.938,0.625,1.25l17.344,17.344c0.313,0.417,0.729,0.625,1.25,0.625s0.989-0.208,1.406-0.625L87.841,33.555z"/>

</svg>
