<svg version="1" xmlns="http://www.w3.org/2000/svg" width="5556" height="5556" viewBox="0 0 4167.000000 4167.000000"><path d="M2045.5 209.1c-67.4 4.8-133.4 24.6-189.5 56.9-36 20.8-66.8 44.7-99 77-68.4 68.5-109.9 146.5-126.4 238-9 49.8-9.9 107-2.5 158.4 14.4 100.1 59.4 186.8 134.9 259.9 80.1 77.6 171.7 119 282.4 127.7 16.7 1.3 58.4 1.3 75.7 0 79.7-6.2 148.9-29.2 211.8-70.7 77.5-51 140.7-125.5 175.1-206.3 46.3-108.5 47.5-245.6 3.2-356-34.8-86.9-103.5-167.5-187.2-220-60.4-37.7-128.8-59.4-205.5-65-16.3-1.2-55.6-1.1-73 .1z"/><path d="M597.6 1055c-36.4 4.2-69.4 18.3-99.6 42.7-9.5 7.7-25.8 24.5-33.1 34.3-20.2 26.9-33.9 61-39.5 98.1-2.1 13.9-2.4 41.5-.5 54.8 9.1 65 55 128 117.1 160.9 20.4 10.8 28.8 13.3 85.6 26.1 401.8 90.5 746.2 157.5 975.4 189.9l19.5 2.8-.2 88.4c-.5 260.5-11.2 522.6-30.4 740.5-15.9 182.2-38.4 341.7-68.9 489.5-33.5 162.8-90 348-167.4 549.2-10.8 28.3-15.2 38-32.2 72-21.2 42.3-21.9 44.2-26.4 69.8-3.1 17.5-3.9 53.2-1.6 71 4.3 32.8 12.7 60.5 27.1 89.7 11.7 23.9 22.4 39.1 40.5 57.6 28.2 29.1 64.5 49.2 107 59.6 54.4 13.2 103.1 7.6 154.5-17.8 49.1-24.3 85.4-58.3 109.7-102.6 7.1-13 42.9-97.7 53.7-127.2 48.9-133.1 105.6-293.1 126.9-358.3 9.7-29.5 30.3-112.2 45.2-180.5 20.8-96.1 41.3-213.8 55.4-318.5 2-14.6 3.9-28 4.1-29.8l.6-3.2h63.4c51.6 0 63.5.2 63.5 1.3 0 6.1 15.5 111.3 23.6 160 25.3 152.9 59.8 306.4 87.4 388.7 25.6 76.7 65.7 189.7 113 319 17.5 47.9 50.2 127 60.7 147 33.8 64.5 105.3 114.9 178.8 126.4 57 8.9 124.4-8.6 171.4-44.3 47-35.8 79.5-95.8 89.2-165.1.9-5.8 1.4-18.5 1.4-32.5-.1-25.3-1.3-36.6-6.5-58.2-2.7-11.4-4.2-14.7-22.1-50.5-20.4-40.8-24.6-50.8-50.9-121.3-66.3-177.7-114.9-339.6-146.9-489.5-11.1-52.1-28-145.7-36.6-203.5-34.1-227.2-54.3-494-62.5-824-1.8-73.8-3.1-189.5-2.8-246.5l.3-56.4 19.5-2.8c223.1-31.5 546.8-94.2 941.5-182.4 40.7-9.1 80.1-17.9 87.5-19.5 18.6-4 27.3-7 42.5-14.4 16.2-8 28.9-17.1 42-30 31.2-30.9 54.2-74.6 62.7-119.3 3.1-15.9 3.3-55.1.4-70.7-10.6-57.9-35.9-100.7-78.8-133.1-37.6-28.3-80.6-41.2-125.6-37.5-17.2 1.3-28.5 3.6-79.4 15.9-203.8 49.4-441.6 100.3-617.5 132.2-134.2 24.4-224.8 37.9-362.8 54-199.5 23.2-382.5 29.1-575 18.5-78.1-4.3-131-9.2-249.5-23-227.1-26.3-518.3-81.8-897.5-171-31.3-7.4-66.1-15.6-77.2-18.4-11.1-2.7-24.8-5.7-30.5-6.6-12.7-1.9-38.6-2.7-49.2-1.5z"/></svg>